<svg xmlns="http://www.w3.org/2000/svg" xmlns:xlink="http://www.w3.org/1999/xlink" width="1000" zoomAndPan="magnify" viewBox="0 0 750 225" height="300" preserveAspectRatio="xMidYMid meet" version="1.0"><defs><g/><clipPath id="d9ca599cef"><path d="M 37.5 22.5 L 220.277344 22.5 L 220.277344 205.277344 L 37.5 205.277344 Z M 37.5 22.5 " clip-rule="nonzero"/></clipPath><clipPath id="65ae54f971"><path d="M 86.734375 22.5 L 171.28125 22.5 C 172.894531 22.5 174.503906 22.578125 176.105469 22.738281 C 177.710938 22.894531 179.304688 23.132812 180.886719 23.445312 C 182.46875 23.761719 184.03125 24.152344 185.574219 24.621094 C 187.117188 25.089844 188.632812 25.628906 190.121094 26.246094 C 191.613281 26.863281 193.070312 27.554688 194.492188 28.3125 C 195.914062 29.074219 197.292969 29.902344 198.636719 30.796875 C 199.976562 31.695312 201.269531 32.652344 202.515625 33.675781 C 203.761719 34.699219 204.957031 35.78125 206.097656 36.921875 C 207.238281 38.0625 208.316406 39.253906 209.339844 40.5 C 210.363281 41.746094 211.324219 43.042969 212.21875 44.382812 C 213.117188 45.722656 213.941406 47.105469 214.703125 48.527344 C 215.464844 49.949219 216.152344 51.40625 216.769531 52.894531 C 217.386719 54.382812 217.929688 55.902344 218.398438 57.445312 C 218.867188 58.988281 219.257812 60.550781 219.570312 62.128906 C 219.886719 63.710938 220.121094 65.304688 220.28125 66.910156 C 220.4375 68.515625 220.515625 70.125 220.515625 71.734375 L 220.515625 156.28125 C 220.515625 157.894531 220.4375 159.503906 220.28125 161.105469 C 220.121094 162.710938 219.886719 164.304688 219.570312 165.886719 C 219.257812 167.46875 218.867188 169.03125 218.398438 170.574219 C 217.929688 172.117188 217.386719 173.632812 216.769531 175.121094 C 216.152344 176.613281 215.464844 178.070312 214.703125 179.492188 C 213.941406 180.914062 213.117188 182.292969 212.21875 183.636719 C 211.324219 184.976562 210.363281 186.269531 209.339844 187.515625 C 208.316406 188.761719 207.238281 189.957031 206.097656 191.097656 C 204.957031 192.238281 203.761719 193.316406 202.515625 194.339844 C 201.269531 195.363281 199.976562 196.324219 198.636719 197.21875 C 197.292969 198.117188 195.914062 198.945312 194.492188 199.703125 C 193.070312 200.464844 191.613281 201.152344 190.121094 201.769531 C 188.632812 202.386719 187.117188 202.929688 185.574219 203.398438 C 184.03125 203.867188 182.46875 204.257812 180.886719 204.570312 C 179.304688 204.886719 177.710938 205.121094 176.105469 205.28125 C 174.503906 205.4375 172.894531 205.515625 171.28125 205.515625 L 86.734375 205.515625 C 85.125 205.515625 83.515625 205.4375 81.910156 205.28125 C 80.304688 205.121094 78.710938 204.886719 77.128906 204.570312 C 75.550781 204.257812 73.988281 203.867188 72.445312 203.398438 C 70.902344 202.929688 69.382812 202.386719 67.894531 201.769531 C 66.40625 201.152344 64.949219 200.464844 63.527344 199.703125 C 62.105469 198.945312 60.722656 198.117188 59.382812 197.21875 C 58.042969 196.324219 56.746094 195.363281 55.5 194.339844 C 54.253906 193.316406 53.0625 192.238281 51.921875 191.097656 C 50.78125 189.957031 49.699219 188.761719 48.675781 187.515625 C 47.652344 186.269531 46.695312 184.976562 45.796875 183.636719 C 44.902344 182.292969 44.074219 180.914062 43.3125 179.492188 C 42.554688 178.070312 41.863281 176.613281 41.246094 175.121094 C 40.628906 173.632812 40.089844 172.117188 39.621094 170.574219 C 39.152344 169.03125 38.761719 167.46875 38.445312 165.886719 C 38.132812 164.304688 37.894531 162.710938 37.738281 161.105469 C 37.578125 159.503906 37.5 157.894531 37.5 156.28125 L 37.5 71.734375 C 37.5 70.125 37.578125 68.515625 37.738281 66.910156 C 37.894531 65.304688 38.132812 63.710938 38.445312 62.128906 C 38.761719 60.550781 39.152344 58.988281 39.621094 57.445312 C 40.089844 55.902344 40.628906 54.382812 41.246094 52.894531 C 41.863281 51.40625 42.554688 49.949219 43.3125 48.527344 C 44.074219 47.105469 44.902344 45.722656 45.796875 44.382812 C 46.695312 43.042969 47.652344 41.746094 48.675781 40.5 C 49.699219 39.253906 50.78125 38.0625 51.921875 36.921875 C 53.0625 35.78125 54.253906 34.699219 55.5 33.675781 C 56.746094 32.652344 58.042969 31.695312 59.382812 30.796875 C 60.722656 29.902344 62.105469 29.074219 63.527344 28.3125 C 64.949219 27.554688 66.40625 26.863281 67.894531 26.246094 C 69.382812 25.628906 70.902344 25.089844 72.445312 24.621094 C 73.988281 24.152344 75.550781 23.761719 77.128906 23.445312 C 78.710938 23.132812 80.304688 22.894531 81.910156 22.738281 C 83.515625 22.578125 85.125 22.5 86.734375 22.5 Z M 86.734375 22.5 " clip-rule="nonzero"/></clipPath><linearGradient x1="21.457461" gradientTransform="matrix(0, -0.775497, 0.775497, 0, 37.5, 205.517295)" y1="-15.316498" x2="214.503134" gradientUnits="userSpaceOnUse" y2="251.260381" id="458e167ca2"><stop stop-opacity="1" stop-color="rgb(36.573792%, 82.527161%, 89.904785%)" offset="0"/><stop stop-opacity="1" stop-color="rgb(36.604309%, 82.164001%, 89.886475%)" offset="0.00390625"/><stop stop-opacity="1" stop-color="rgb(36.634827%, 81.800842%, 89.868164%)" offset="0.0078125"/><stop stop-opacity="1" stop-color="rgb(36.665344%, 81.437683%, 89.848328%)" offset="0.0117187"/><stop stop-opacity="1" stop-color="rgb(36.695862%, 81.074524%, 89.830017%)" offset="0.015625"/><stop stop-opacity="1" stop-color="rgb(36.726379%, 80.711365%, 89.810181%)" offset="0.0195313"/><stop stop-opacity="1" stop-color="rgb(36.756897%, 80.348206%, 89.79187%)" offset="0.0234375"/><stop stop-opacity="1" stop-color="rgb(36.785889%, 79.983521%, 89.77356%)" offset="0.0273438"/><stop stop-opacity="1" stop-color="rgb(36.816406%, 79.620361%, 89.755249%)" offset="0.03125"/><stop stop-opacity="1" stop-color="rgb(36.846924%, 79.257202%, 89.735413%)" offset="0.0351562"/><stop stop-opacity="1" stop-color="rgb(36.877441%, 78.894043%, 89.717102%)" offset="0.0390625"/><stop stop-opacity="1" stop-color="rgb(36.907959%, 78.530884%, 89.697266%)" offset="0.0429688"/><stop stop-opacity="1" stop-color="rgb(36.938477%, 78.167725%, 89.678955%)" offset="0.046875"/><stop stop-opacity="1" stop-color="rgb(36.968994%, 77.804565%, 89.660645%)" offset="0.0507813"/><stop stop-opacity="1" stop-color="rgb(36.999512%, 77.441406%, 89.642334%)" offset="0.0546875"/><stop stop-opacity="1" stop-color="rgb(37.030029%, 77.078247%, 89.622498%)" offset="0.0585938"/><stop stop-opacity="1" stop-color="rgb(37.060547%, 76.715088%, 89.604187%)" offset="0.0625"/><stop stop-opacity="1" stop-color="rgb(37.089539%, 76.351929%, 89.585876%)" offset="0.0664063"/><stop stop-opacity="1" stop-color="rgb(37.120056%, 75.98877%, 89.567566%)" offset="0.0703125"/><stop stop-opacity="1" stop-color="rgb(37.150574%, 75.62561%, 89.547729%)" offset="0.0742188"/><stop stop-opacity="1" stop-color="rgb(37.181091%, 75.262451%, 89.529419%)" offset="0.078125"/><stop stop-opacity="1" stop-color="rgb(37.211609%, 74.899292%, 89.509583%)" offset="0.0820313"/><stop stop-opacity="1" stop-color="rgb(37.242126%, 74.536133%, 89.491272%)" offset="0.0859375"/><stop stop-opacity="1" stop-color="rgb(37.272644%, 74.172974%, 89.472961%)" offset="0.0898438"/><stop stop-opacity="1" stop-color="rgb(37.303162%, 73.809814%, 89.454651%)" offset="0.09375"/><stop stop-opacity="1" stop-color="rgb(37.333679%, 73.446655%, 89.434814%)" offset="0.0976563"/><stop stop-opacity="1" stop-color="rgb(37.364197%, 73.083496%, 89.416504%)" offset="0.101563"/><stop stop-opacity="1" stop-color="rgb(37.394714%, 72.720337%, 89.396667%)" offset="0.105469"/><stop stop-opacity="1" stop-color="rgb(37.425232%, 72.357178%, 89.378357%)" offset="0.109375"/><stop stop-opacity="1" stop-color="rgb(37.454224%, 71.994019%, 89.360046%)" offset="0.113281"/><stop stop-opacity="1" stop-color="rgb(37.484741%, 71.630859%, 89.341736%)" offset="0.117187"/><stop stop-opacity="1" stop-color="rgb(37.515259%, 71.2677%, 89.321899%)" offset="0.121094"/><stop stop-opacity="1" stop-color="rgb(37.545776%, 70.904541%, 89.303589%)" offset="0.125"/><stop stop-opacity="1" stop-color="rgb(37.576294%, 70.541382%, 89.283752%)" offset="0.128906"/><stop stop-opacity="1" stop-color="rgb(37.606812%, 70.178223%, 89.265442%)" offset="0.132812"/><stop stop-opacity="1" stop-color="rgb(37.637329%, 69.815063%, 89.247131%)" offset="0.136719"/><stop stop-opacity="1" stop-color="rgb(37.667847%, 69.451904%, 89.228821%)" offset="0.140625"/><stop stop-opacity="1" stop-color="rgb(37.698364%, 69.088745%, 89.208984%)" offset="0.144531"/><stop stop-opacity="1" stop-color="rgb(37.728882%, 68.725586%, 89.190674%)" offset="0.148437"/><stop stop-opacity="1" stop-color="rgb(37.759399%, 68.362427%, 89.170837%)" offset="0.152344"/><stop stop-opacity="1" stop-color="rgb(37.789917%, 67.999268%, 89.152527%)" offset="0.15625"/><stop stop-opacity="1" stop-color="rgb(37.818909%, 67.636108%, 89.134216%)" offset="0.160156"/><stop stop-opacity="1" stop-color="rgb(37.849426%, 67.272949%, 89.115906%)" offset="0.164062"/><stop stop-opacity="1" stop-color="rgb(37.879944%, 66.90979%, 89.096069%)" offset="0.167969"/><stop stop-opacity="1" stop-color="rgb(37.910461%, 66.546631%, 89.077759%)" offset="0.171875"/><stop stop-opacity="1" stop-color="rgb(37.940979%, 66.181946%, 89.057922%)" offset="0.175781"/><stop stop-opacity="1" stop-color="rgb(37.971497%, 65.818787%, 89.039612%)" offset="0.179688"/><stop stop-opacity="1" stop-color="rgb(38.002014%, 65.455627%, 89.021301%)" offset="0.183594"/><stop stop-opacity="1" stop-color="rgb(38.032532%, 65.092468%, 89.002991%)" offset="0.1875"/><stop stop-opacity="1" stop-color="rgb(38.063049%, 64.729309%, 88.983154%)" offset="0.191406"/><stop stop-opacity="1" stop-color="rgb(38.093567%, 64.36615%, 88.964844%)" offset="0.195313"/><stop stop-opacity="1" stop-color="rgb(38.124084%, 64.002991%, 88.945007%)" offset="0.199219"/><stop stop-opacity="1" stop-color="rgb(38.154602%, 63.639832%, 88.926697%)" offset="0.203125"/><stop stop-opacity="1" stop-color="rgb(38.183594%, 63.276672%, 88.908386%)" offset="0.207031"/><stop stop-opacity="1" stop-color="rgb(38.214111%, 62.913513%, 88.890076%)" offset="0.210938"/><stop stop-opacity="1" stop-color="rgb(38.244629%, 62.550354%, 88.870239%)" offset="0.214844"/><stop stop-opacity="1" stop-color="rgb(38.275146%, 62.187195%, 88.851929%)" offset="0.21875"/><stop stop-opacity="1" stop-color="rgb(38.305664%, 61.824036%, 88.832092%)" offset="0.222656"/><stop stop-opacity="1" stop-color="rgb(38.336182%, 61.460876%, 88.813782%)" offset="0.226563"/><stop stop-opacity="1" stop-color="rgb(38.366699%, 61.097717%, 88.795471%)" offset="0.230469"/><stop stop-opacity="1" stop-color="rgb(38.397217%, 60.734558%, 88.777161%)" offset="0.234375"/><stop stop-opacity="1" stop-color="rgb(38.427734%, 60.371399%, 88.757324%)" offset="0.238281"/><stop stop-opacity="1" stop-color="rgb(38.458252%, 60.00824%, 88.739014%)" offset="0.242188"/><stop stop-opacity="1" stop-color="rgb(38.48877%, 59.645081%, 88.719177%)" offset="0.246094"/><stop stop-opacity="1" stop-color="rgb(38.519287%, 59.281921%, 88.700867%)" offset="0.25"/><stop stop-opacity="1" stop-color="rgb(38.548279%, 58.918762%, 88.682556%)" offset="0.253906"/><stop stop-opacity="1" stop-color="rgb(38.578796%, 58.555603%, 88.664246%)" offset="0.257812"/><stop stop-opacity="1" stop-color="rgb(38.609314%, 58.192444%, 88.644409%)" offset="0.261719"/><stop stop-opacity="1" stop-color="rgb(38.639832%, 57.829285%, 88.626099%)" offset="0.265625"/><stop stop-opacity="1" stop-color="rgb(38.670349%, 57.466125%, 88.606262%)" offset="0.269531"/><stop stop-opacity="1" stop-color="rgb(38.700867%, 57.102966%, 88.587952%)" offset="0.273438"/><stop stop-opacity="1" stop-color="rgb(38.731384%, 56.739807%, 88.569641%)" offset="0.277344"/><stop stop-opacity="1" stop-color="rgb(38.761902%, 56.376648%, 88.551331%)" offset="0.28125"/><stop stop-opacity="1" stop-color="rgb(38.792419%, 56.013489%, 88.531494%)" offset="0.285156"/><stop stop-opacity="1" stop-color="rgb(38.822937%, 55.65033%, 88.513184%)" offset="0.289063"/><stop stop-opacity="1" stop-color="rgb(38.853455%, 55.28717%, 88.493347%)" offset="0.292969"/><stop stop-opacity="1" stop-color="rgb(38.883972%, 54.924011%, 88.475037%)" offset="0.296875"/><stop stop-opacity="1" stop-color="rgb(38.912964%, 54.560852%, 88.456726%)" offset="0.300781"/><stop stop-opacity="1" stop-color="rgb(38.943481%, 54.197693%, 88.438416%)" offset="0.304688"/><stop stop-opacity="1" stop-color="rgb(38.973999%, 53.834534%, 88.418579%)" offset="0.308594"/><stop stop-opacity="1" stop-color="rgb(39.004517%, 53.471375%, 88.400269%)" offset="0.3125"/><stop stop-opacity="1" stop-color="rgb(39.035034%, 53.108215%, 88.381958%)" offset="0.316406"/><stop stop-opacity="1" stop-color="rgb(39.065552%, 52.745056%, 88.363647%)" offset="0.320312"/><stop stop-opacity="1" stop-color="rgb(39.096069%, 52.380371%, 88.343811%)" offset="0.324219"/><stop stop-opacity="1" stop-color="rgb(39.126587%, 52.017212%, 88.3255%)" offset="0.328125"/><stop stop-opacity="1" stop-color="rgb(39.157104%, 51.654053%, 88.305664%)" offset="0.332031"/><stop stop-opacity="1" stop-color="rgb(39.187622%, 51.290894%, 88.287354%)" offset="0.335938"/><stop stop-opacity="1" stop-color="rgb(39.21814%, 50.927734%, 88.269043%)" offset="0.339844"/><stop stop-opacity="1" stop-color="rgb(39.248657%, 50.564575%, 88.250732%)" offset="0.34375"/><stop stop-opacity="1" stop-color="rgb(39.277649%, 50.201416%, 88.230896%)" offset="0.347656"/><stop stop-opacity="1" stop-color="rgb(39.308167%, 49.838257%, 88.212585%)" offset="0.351563"/><stop stop-opacity="1" stop-color="rgb(39.338684%, 49.475098%, 88.192749%)" offset="0.355469"/><stop stop-opacity="1" stop-color="rgb(39.369202%, 49.111938%, 88.174438%)" offset="0.359375"/><stop stop-opacity="1" stop-color="rgb(39.399719%, 48.748779%, 88.156128%)" offset="0.363281"/><stop stop-opacity="1" stop-color="rgb(39.430237%, 48.38562%, 88.137817%)" offset="0.367188"/><stop stop-opacity="1" stop-color="rgb(39.460754%, 48.022461%, 88.117981%)" offset="0.371094"/><stop stop-opacity="1" stop-color="rgb(39.491272%, 47.659302%, 88.09967%)" offset="0.375"/><stop stop-opacity="1" stop-color="rgb(39.52179%, 47.296143%, 88.079834%)" offset="0.378906"/><stop stop-opacity="1" stop-color="rgb(39.552307%, 46.932983%, 88.061523%)" offset="0.382812"/><stop stop-opacity="1" stop-color="rgb(39.581299%, 46.569824%, 88.043213%)" offset="0.386719"/><stop stop-opacity="1" stop-color="rgb(39.611816%, 46.206665%, 88.024902%)" offset="0.390625"/><stop stop-opacity="1" stop-color="rgb(39.642334%, 45.843506%, 88.005066%)" offset="0.394531"/><stop stop-opacity="1" stop-color="rgb(39.672852%, 45.480347%, 87.986755%)" offset="0.398438"/><stop stop-opacity="1" stop-color="rgb(39.703369%, 45.117188%, 87.966919%)" offset="0.402344"/><stop stop-opacity="1" stop-color="rgb(39.733887%, 44.754028%, 87.948608%)" offset="0.40625"/><stop stop-opacity="1" stop-color="rgb(39.764404%, 44.390869%, 87.930298%)" offset="0.410156"/><stop stop-opacity="1" stop-color="rgb(39.794922%, 44.02771%, 87.911987%)" offset="0.414062"/><stop stop-opacity="1" stop-color="rgb(39.825439%, 43.664551%, 87.892151%)" offset="0.417969"/><stop stop-opacity="1" stop-color="rgb(39.855957%, 43.301392%, 87.87384%)" offset="0.421875"/><stop stop-opacity="1" stop-color="rgb(39.886475%, 42.938232%, 87.854004%)" offset="0.425781"/><stop stop-opacity="1" stop-color="rgb(39.916992%, 42.575073%, 87.835693%)" offset="0.429688"/><stop stop-opacity="1" stop-color="rgb(39.945984%, 42.211914%, 87.817383%)" offset="0.433594"/><stop stop-opacity="1" stop-color="rgb(39.976501%, 41.848755%, 87.799072%)" offset="0.4375"/><stop stop-opacity="1" stop-color="rgb(40.007019%, 41.485596%, 87.779236%)" offset="0.441406"/><stop stop-opacity="1" stop-color="rgb(40.037537%, 41.122437%, 87.760925%)" offset="0.445313"/><stop stop-opacity="1" stop-color="rgb(40.068054%, 40.759277%, 87.741089%)" offset="0.449219"/><stop stop-opacity="1" stop-color="rgb(40.098572%, 40.396118%, 87.722778%)" offset="0.453125"/><stop stop-opacity="1" stop-color="rgb(40.129089%, 40.032959%, 87.704468%)" offset="0.457031"/><stop stop-opacity="1" stop-color="rgb(40.159607%, 39.6698%, 87.686157%)" offset="0.460938"/><stop stop-opacity="1" stop-color="rgb(40.190125%, 39.306641%, 87.666321%)" offset="0.464844"/><stop stop-opacity="1" stop-color="rgb(40.220642%, 38.943481%, 87.64801%)" offset="0.46875"/><stop stop-opacity="1" stop-color="rgb(40.25116%, 38.578796%, 87.628174%)" offset="0.472656"/><stop stop-opacity="1" stop-color="rgb(40.281677%, 38.215637%, 87.609863%)" offset="0.476563"/><stop stop-opacity="1" stop-color="rgb(40.310669%, 37.852478%, 87.591553%)" offset="0.480469"/><stop stop-opacity="1" stop-color="rgb(40.341187%, 37.489319%, 87.573242%)" offset="0.484375"/><stop stop-opacity="1" stop-color="rgb(40.371704%, 37.12616%, 87.553406%)" offset="0.488281"/><stop stop-opacity="1" stop-color="rgb(40.402222%, 36.763%, 87.535095%)" offset="0.492188"/><stop stop-opacity="1" stop-color="rgb(40.432739%, 36.399841%, 87.515259%)" offset="0.496094"/><stop stop-opacity="1" stop-color="rgb(40.463257%, 36.036682%, 87.496948%)" offset="0.5"/><stop stop-opacity="1" stop-color="rgb(40.493774%, 35.673523%, 87.478638%)" offset="0.503906"/><stop stop-opacity="1" stop-color="rgb(40.524292%, 35.310364%, 87.460327%)" offset="0.507813"/><stop stop-opacity="1" stop-color="rgb(40.55481%, 34.947205%, 87.440491%)" offset="0.511719"/><stop stop-opacity="1" stop-color="rgb(40.585327%, 34.584045%, 87.42218%)" offset="0.515625"/><stop stop-opacity="1" stop-color="rgb(40.615845%, 34.220886%, 87.402344%)" offset="0.519531"/><stop stop-opacity="1" stop-color="rgb(40.646362%, 33.857727%, 87.384033%)" offset="0.523438"/><stop stop-opacity="1" stop-color="rgb(40.675354%, 33.494568%, 87.365723%)" offset="0.527344"/><stop stop-opacity="1" stop-color="rgb(40.705872%, 33.131409%, 87.347412%)" offset="0.53125"/><stop stop-opacity="1" stop-color="rgb(40.736389%, 32.76825%, 87.327576%)" offset="0.535156"/><stop stop-opacity="1" stop-color="rgb(40.766907%, 32.40509%, 87.309265%)" offset="0.539062"/><stop stop-opacity="1" stop-color="rgb(40.797424%, 32.041931%, 87.290955%)" offset="0.542969"/><stop stop-opacity="1" stop-color="rgb(40.827942%, 31.678772%, 87.272644%)" offset="0.546875"/><stop stop-opacity="1" stop-color="rgb(40.858459%, 31.315613%, 87.252808%)" offset="0.550781"/><stop stop-opacity="1" stop-color="rgb(40.888977%, 30.952454%, 87.234497%)" offset="0.554688"/><stop stop-opacity="1" stop-color="rgb(40.919495%, 30.589294%, 87.214661%)" offset="0.558594"/><stop stop-opacity="1" stop-color="rgb(40.950012%, 30.226135%, 87.19635%)" offset="0.5625"/><stop stop-opacity="1" stop-color="rgb(40.98053%, 29.862976%, 87.17804%)" offset="0.566406"/><stop stop-opacity="1" stop-color="rgb(41.011047%, 29.499817%, 87.159729%)" offset="0.570312"/><stop stop-opacity="1" stop-color="rgb(41.040039%, 29.136658%, 87.139893%)" offset="0.574219"/><stop stop-opacity="1" stop-color="rgb(41.070557%, 28.773499%, 87.121582%)" offset="0.578125"/><stop stop-opacity="1" stop-color="rgb(41.101074%, 28.410339%, 87.101746%)" offset="0.582031"/><stop stop-opacity="1" stop-color="rgb(41.131592%, 28.04718%, 87.083435%)" offset="0.585938"/><stop stop-opacity="1" stop-color="rgb(41.162109%, 27.684021%, 87.065125%)" offset="0.589844"/><stop stop-opacity="1" stop-color="rgb(41.192627%, 27.320862%, 87.046814%)" offset="0.59375"/><stop stop-opacity="1" stop-color="rgb(41.223145%, 26.957703%, 87.026978%)" offset="0.597656"/><stop stop-opacity="1" stop-color="rgb(41.253662%, 26.594543%, 87.008667%)" offset="0.601563"/><stop stop-opacity="1" stop-color="rgb(41.28418%, 26.231384%, 86.988831%)" offset="0.605469"/><stop stop-opacity="1" stop-color="rgb(41.314697%, 25.868225%, 86.97052%)" offset="0.609375"/><stop stop-opacity="1" stop-color="rgb(41.345215%, 25.505066%, 86.952209%)" offset="0.613281"/><stop stop-opacity="1" stop-color="rgb(41.375732%, 25.141907%, 86.933899%)" offset="0.617188"/><stop stop-opacity="1" stop-color="rgb(41.404724%, 24.778748%, 86.914062%)" offset="0.621094"/><stop stop-opacity="1" stop-color="rgb(41.435242%, 24.415588%, 86.895752%)" offset="0.625"/><stop stop-opacity="1" stop-color="rgb(41.465759%, 24.050903%, 86.875916%)" offset="0.628906"/><stop stop-opacity="1" stop-color="rgb(41.496277%, 23.687744%, 86.857605%)" offset="0.632813"/><stop stop-opacity="1" stop-color="rgb(41.526794%, 23.324585%, 86.839294%)" offset="0.636719"/><stop stop-opacity="1" stop-color="rgb(41.557312%, 22.961426%, 86.820984%)" offset="0.640625"/><stop stop-opacity="1" stop-color="rgb(41.58783%, 22.598267%, 86.801147%)" offset="0.644531"/><stop stop-opacity="1" stop-color="rgb(41.618347%, 22.235107%, 86.782837%)" offset="0.648438"/><stop stop-opacity="1" stop-color="rgb(41.648865%, 21.871948%, 86.763%)" offset="0.652344"/><stop stop-opacity="1" stop-color="rgb(41.679382%, 21.508789%, 86.74469%)" offset="0.65625"/><stop stop-opacity="1" stop-color="rgb(41.708374%, 21.14563%, 86.726379%)" offset="0.660156"/><stop stop-opacity="1" stop-color="rgb(41.738892%, 20.782471%, 86.708069%)" offset="0.664063"/><stop stop-opacity="1" stop-color="rgb(41.769409%, 20.419312%, 86.688232%)" offset="0.667969"/><stop stop-opacity="1" stop-color="rgb(41.799927%, 20.056152%, 86.669922%)" offset="0.671875"/><stop stop-opacity="1" stop-color="rgb(41.830444%, 19.692993%, 86.650085%)" offset="0.675781"/><stop stop-opacity="1" stop-color="rgb(41.860962%, 19.329834%, 86.631775%)" offset="0.679688"/><stop stop-opacity="1" stop-color="rgb(41.891479%, 18.966675%, 86.613464%)" offset="0.683594"/><stop stop-opacity="1" stop-color="rgb(41.921997%, 18.603516%, 86.595154%)" offset="0.6875"/><stop stop-opacity="1" stop-color="rgb(41.952515%, 18.240356%, 86.575317%)" offset="0.691406"/><stop stop-opacity="1" stop-color="rgb(41.983032%, 17.877197%, 86.557007%)" offset="0.695313"/><stop stop-opacity="1" stop-color="rgb(42.01355%, 17.514038%, 86.53717%)" offset="0.699219"/><stop stop-opacity="1" stop-color="rgb(42.044067%, 17.150879%, 86.51886%)" offset="0.703125"/><stop stop-opacity="1" stop-color="rgb(42.073059%, 16.78772%, 86.500549%)" offset="0.707031"/><stop stop-opacity="1" stop-color="rgb(42.103577%, 16.424561%, 86.482239%)" offset="0.710938"/><stop stop-opacity="1" stop-color="rgb(42.134094%, 16.061401%, 86.462402%)" offset="0.714844"/><stop stop-opacity="1" stop-color="rgb(42.164612%, 15.698242%, 86.444092%)" offset="0.71875"/><stop stop-opacity="1" stop-color="rgb(42.195129%, 15.335083%, 86.424255%)" offset="0.722656"/><stop stop-opacity="1" stop-color="rgb(42.225647%, 14.971924%, 86.405945%)" offset="0.726563"/><stop stop-opacity="1" stop-color="rgb(42.256165%, 14.608765%, 86.387634%)" offset="0.730469"/><stop stop-opacity="1" stop-color="rgb(42.286682%, 14.245605%, 86.369324%)" offset="0.734375"/><stop stop-opacity="1" stop-color="rgb(42.3172%, 13.882446%, 86.349487%)" offset="0.738281"/><stop stop-opacity="1" stop-color="rgb(42.347717%, 13.519287%, 86.331177%)" offset="0.742188"/><stop stop-opacity="1" stop-color="rgb(42.373657%, 13.209534%, 86.314392%)" offset="0.746094"/><stop stop-opacity="1" stop-color="rgb(42.399597%, 12.89978%, 86.299133%)" offset="0.75"/><stop stop-opacity="1" stop-color="rgb(42.399597%, 12.89978%, 86.299133%)" offset="1"/></linearGradient><clipPath id="bbd4ed0f79"><path d="M 69.21875 59.730469 L 100 59.730469 L 100 168.273438 L 69.21875 168.273438 Z M 69.21875 59.730469 " clip-rule="nonzero"/></clipPath><clipPath id="0bc8e1bd15"><path d="M 99 59.730469 L 129 59.730469 L 129 168.273438 L 99 168.273438 Z M 99 59.730469 " clip-rule="nonzero"/></clipPath><clipPath id="bdea927442"><path d="M 128 59.730469 L 159 59.730469 L 159 168.273438 L 128 168.273438 Z M 128 59.730469 " clip-rule="nonzero"/></clipPath><clipPath id="472a50b5eb"><path d="M 158 59.730469 L 188.726562 59.730469 L 188.726562 168.273438 L 158 168.273438 Z M 158 59.730469 " clip-rule="nonzero"/></clipPath></defs><g clip-path="url(#d9ca599cef)"><g clip-path="url(#65ae54f971)"><path fill="url(#458e167ca2)" d="M 37.5 205.277344 L 220.277344 205.277344 L 220.277344 22.5 L 37.5 22.5 Z M 37.5 205.277344 " fill-rule="nonzero"/></g></g><g clip-path="url(#bbd4ed0f79)"><path fill="#ffffff" d="M 69.4375 59.308594 L 99.171875 95.664062 L 99.171875 168.273438 L 69.304688 131.75 Z M 69.4375 59.308594 " fill-opacity="1" fill-rule="nonzero"/></g><g clip-path="url(#0bc8e1bd15)"><path fill="#c0bff2" d="M 99.171875 168.273438 L 128.96875 131.917969 L 128.96875 59.308594 L 99.171875 95.832031 Z M 99.171875 168.273438 " fill-opacity="1" fill-rule="nonzero"/></g><g clip-path="url(#bdea927442)"><path fill="#dbd5f4" d="M 129.101562 59.308594 L 158.839844 95.664062 L 158.839844 168.273438 L 128.96875 131.75 Z M 129.101562 59.308594 " fill-opacity="1" fill-rule="nonzero"/></g><g clip-path="url(#472a50b5eb)"><path fill="#a287ec" d="M 158.839844 168.273438 L 188.640625 131.917969 L 188.640625 59.308594 L 158.839844 95.832031 Z M 158.839844 168.273438 " fill-opacity="1" fill-rule="nonzero"/></g><g fill="#352359" fill-opacity="1"><g transform="translate(280.964802, 131.518302)"><g><path d="M 11.875 0 L 1.84375 -44.3125 L 11.359375 -44.3125 L 15.546875 -23.046875 L 17.90625 -10.734375 L 18.09375 -10.734375 L 20.890625 -23.046875 L 25.78125 -44.3125 L 36.3125 -44.3125 L 41.265625 -23.046875 L 44 -10.734375 L 44.1875 -10.734375 L 46.53125 -23.046875 L 50.78125 -44.3125 L 59.921875 -44.3125 L 49.640625 0 L 38.65625 0 L 33.078125 -24 L 30.921875 -33.703125 L 30.71875 -33.703125 L 28.5 -24 L 22.921875 0 Z M 11.875 0 "/></g></g></g><g fill="#352359" fill-opacity="1"><g transform="translate(342.722135, 131.518302)"><g><path d="M 9.078125 -36.890625 C 7.171875 -36.890625 5.785156 -37.320312 4.921875 -38.1875 C 4.054688 -39.050781 3.625 -40.160156 3.625 -41.515625 L 3.625 -42.921875 C 3.625 -44.273438 4.054688 -45.382812 4.921875 -46.25 C 5.785156 -47.113281 7.171875 -47.546875 9.078125 -47.546875 C 10.984375 -47.546875 12.367188 -47.113281 13.234375 -46.25 C 14.097656 -45.382812 14.53125 -44.273438 14.53125 -42.921875 L 14.53125 -41.515625 C 14.53125 -40.160156 14.097656 -39.050781 13.234375 -38.1875 C 12.367188 -37.320312 10.984375 -36.890625 9.078125 -36.890625 Z M 4.375 -33.328125 L 13.78125 -33.328125 L 13.78125 0 L 4.375 0 Z M 4.375 -33.328125 "/></g></g></g><g fill="#352359" fill-opacity="1"><g transform="translate(360.874852, 131.518302)"><g><path d="M 24.828125 -5.59375 L 24.5 -5.59375 C 24.25 -4.695312 23.847656 -3.859375 23.296875 -3.078125 C 22.742188 -2.296875 22.078125 -1.617188 21.296875 -1.046875 C 20.515625 -0.472656 19.625 -0.03125 18.625 0.28125 C 17.632812 0.601562 16.609375 0.765625 15.546875 0.765625 C 11.316406 0.765625 8.125 -0.722656 5.96875 -3.703125 C 3.8125 -6.691406 2.734375 -11.023438 2.734375 -16.703125 C 2.734375 -22.367188 3.8125 -26.679688 5.96875 -29.640625 C 8.125 -32.609375 11.316406 -34.09375 15.546875 -34.09375 C 17.710938 -34.09375 19.628906 -33.5 21.296875 -32.3125 C 22.972656 -31.125 24.039062 -29.601562 24.5 -27.75 L 24.828125 -27.75 L 24.828125 -46.984375 L 34.21875 -46.984375 L 34.21875 0 L 24.828125 0 Z M 18.671875 -6.859375 C 20.441406 -6.859375 21.910156 -7.289062 23.078125 -8.15625 C 24.242188 -9.019531 24.828125 -10.21875 24.828125 -11.75 L 24.828125 -21.578125 C 24.828125 -23.109375 24.242188 -24.304688 23.078125 -25.171875 C 21.910156 -26.035156 20.441406 -26.46875 18.671875 -26.46875 C 16.890625 -26.46875 15.414062 -25.84375 14.25 -24.59375 C 13.082031 -23.351562 12.5 -21.671875 12.5 -19.546875 L 12.5 -13.78125 C 12.5 -11.664062 13.082031 -9.984375 14.25 -8.734375 C 15.414062 -7.484375 16.890625 -6.859375 18.671875 -6.859375 Z M 18.671875 -6.859375 "/></g></g></g><g fill="#352359" fill-opacity="1"><g transform="translate(399.465256, 131.518302)"><g><path d="M 35.234375 2.40625 C 35.234375 4.1875 34.925781 5.753906 34.3125 7.109375 C 33.695312 8.460938 32.691406 9.613281 31.296875 10.5625 C 29.898438 11.519531 28.046875 12.238281 25.734375 12.71875 C 23.429688 13.207031 20.585938 13.453125 17.203125 13.453125 C 14.328125 13.453125 11.882812 13.269531 9.875 12.90625 C 7.863281 12.550781 6.234375 12.046875 4.984375 11.390625 C 3.734375 10.734375 2.820312 9.925781 2.25 8.96875 C 1.675781 8.019531 1.390625 6.9375 1.390625 5.71875 C 1.390625 3.851562 1.941406 2.390625 3.046875 1.328125 C 4.148438 0.273438 5.675781 -0.378906 7.625 -0.640625 L 7.625 -1.328125 C 6.007812 -1.628906 4.800781 -2.316406 4 -3.390625 C 3.195312 -4.472656 2.796875 -5.734375 2.796875 -7.171875 C 2.796875 -8.054688 2.972656 -8.828125 3.328125 -9.484375 C 3.691406 -10.140625 4.160156 -10.710938 4.734375 -11.203125 C 5.304688 -11.691406 5.972656 -12.082031 6.734375 -12.375 C 7.492188 -12.675781 8.253906 -12.910156 9.015625 -13.078125 L 9.015625 -13.328125 C 6.984375 -14.265625 5.476562 -15.546875 4.5 -17.171875 C 3.53125 -18.796875 3.046875 -20.691406 3.046875 -22.859375 C 3.046875 -26.242188 4.21875 -28.960938 6.5625 -31.015625 C 8.914062 -33.066406 12.503906 -34.09375 17.328125 -34.09375 C 19.523438 -34.09375 21.410156 -33.878906 22.984375 -33.453125 L 22.984375 -34.71875 C 22.984375 -36.5 23.414062 -37.78125 24.28125 -38.5625 C 25.144531 -39.34375 26.382812 -39.734375 28 -39.734375 L 33.265625 -39.734375 L 33.265625 -32.765625 L 25.90625 -32.765625 L 25.90625 -32.375 C 27.851562 -31.445312 29.289062 -30.164062 30.21875 -28.53125 C 31.144531 -26.90625 31.609375 -25.015625 31.609375 -22.859375 C 31.609375 -19.515625 30.429688 -16.835938 28.078125 -14.828125 C 25.734375 -12.816406 22.148438 -11.8125 17.328125 -11.8125 C 15.171875 -11.8125 13.203125 -12.039062 11.421875 -12.5 C 10.453125 -11.863281 9.96875 -10.976562 9.96875 -9.84375 C 9.96875 -9.039062 10.273438 -8.414062 10.890625 -7.96875 C 11.503906 -7.519531 12.53125 -7.296875 13.96875 -7.296875 L 23.609375 -7.296875 C 27.671875 -7.296875 30.625 -6.445312 32.46875 -4.75 C 34.3125 -3.0625 35.234375 -0.675781 35.234375 2.40625 Z M 26.40625 3.6875 C 26.40625 2.707031 26.023438 1.960938 25.265625 1.453125 C 24.503906 0.953125 23.171875 0.703125 21.265625 0.703125 L 9.84375 0.703125 C 9.414062 1.117188 9.109375 1.59375 8.921875 2.125 C 8.734375 2.65625 8.640625 3.175781 8.640625 3.6875 C 8.640625 4.90625 9.164062 5.800781 10.21875 6.375 C 11.28125 6.945312 13.078125 7.234375 15.609375 7.234375 L 19.421875 7.234375 C 21.960938 7.234375 23.757812 6.945312 24.8125 6.375 C 25.875 5.800781 26.40625 4.90625 26.40625 3.6875 Z M 17.328125 -17.96875 C 19.191406 -17.96875 20.578125 -18.359375 21.484375 -19.140625 C 22.398438 -19.921875 22.859375 -21.050781 22.859375 -22.53125 L 22.859375 -23.296875 C 22.859375 -24.773438 22.398438 -25.90625 21.484375 -26.6875 C 20.578125 -27.476562 19.191406 -27.875 17.328125 -27.875 C 15.460938 -27.875 14.078125 -27.476562 13.171875 -26.6875 C 12.265625 -25.90625 11.8125 -24.773438 11.8125 -23.296875 L 11.8125 -22.53125 C 11.8125 -21.050781 12.265625 -19.921875 13.171875 -19.140625 C 14.078125 -18.359375 15.460938 -17.96875 17.328125 -17.96875 Z M 17.328125 -17.96875 "/></g></g></g><g fill="#352359" fill-opacity="1"><g transform="translate(434.501271, 131.518302)"><g><path d="M 18.28125 0.765625 C 15.738281 0.765625 13.472656 0.351562 11.484375 -0.46875 C 9.492188 -1.300781 7.8125 -2.46875 6.4375 -3.96875 C 5.0625 -5.46875 4.023438 -7.296875 3.328125 -9.453125 C 2.628906 -11.617188 2.28125 -14.035156 2.28125 -16.703125 C 2.28125 -19.316406 2.617188 -21.691406 3.296875 -23.828125 C 3.972656 -25.972656 4.976562 -27.804688 6.3125 -29.328125 C 7.644531 -30.847656 9.285156 -32.019531 11.234375 -32.84375 C 13.179688 -33.675781 15.40625 -34.09375 17.90625 -34.09375 C 20.65625 -34.09375 23.015625 -33.625 24.984375 -32.6875 C 26.953125 -31.757812 28.554688 -30.507812 29.796875 -28.9375 C 31.046875 -27.375 31.957031 -25.566406 32.53125 -23.515625 C 33.101562 -21.460938 33.390625 -19.316406 33.390625 -17.078125 L 33.390625 -14.28125 L 12 -14.28125 L 12 -13.78125 C 12 -11.570312 12.585938 -9.820312 13.765625 -8.53125 C 14.953125 -7.25 16.816406 -6.609375 19.359375 -6.609375 C 21.304688 -6.609375 22.894531 -7 24.125 -7.78125 C 25.351562 -8.5625 26.492188 -9.503906 27.546875 -10.609375 L 32.25 -4.765625 C 30.769531 -3.023438 28.832031 -1.664062 26.4375 -0.6875 C 24.050781 0.28125 21.332031 0.765625 18.28125 0.765625 Z M 18.09375 -27.171875 C 16.1875 -27.171875 14.691406 -26.546875 13.609375 -25.296875 C 12.535156 -24.046875 12 -22.382812 12 -20.3125 L 12 -19.8125 L 23.6875 -19.8125 L 23.6875 -20.375 C 23.6875 -22.40625 23.226562 -24.046875 22.3125 -25.296875 C 21.40625 -26.546875 20 -27.171875 18.09375 -27.171875 Z M 18.09375 -27.171875 "/></g></g></g><g fill="#352359" fill-opacity="1"><g transform="translate(470.171996, 131.518302)"><g><path d="M 16.0625 0 C 12.800781 0 10.332031 -0.820312 8.65625 -2.46875 C 6.988281 -4.125 6.15625 -6.539062 6.15625 -9.71875 L 6.15625 -26.03125 L 1.453125 -26.03125 L 1.453125 -33.328125 L 3.8125 -33.328125 C 5.082031 -33.328125 5.945312 -33.632812 6.40625 -34.25 C 6.875 -34.863281 7.109375 -35.742188 7.109375 -36.890625 L 7.109375 -42.34375 L 15.546875 -42.34375 L 15.546875 -33.328125 L 22.15625 -33.328125 L 22.15625 -26.03125 L 15.546875 -26.03125 L 15.546875 -7.296875 L 21.640625 -7.296875 L 21.640625 0 Z M 16.0625 0 "/></g></g></g><g fill="#352359" fill-opacity="1"><g transform="translate(494.481411, 131.518302)"><g/></g></g><g fill="#352359" fill-opacity="1"><g transform="translate(509.460579, 131.518302)"><g><path d="M 11.875 0 L 1.84375 -44.3125 L 11.359375 -44.3125 L 15.546875 -23.046875 L 17.90625 -10.734375 L 18.09375 -10.734375 L 20.890625 -23.046875 L 25.78125 -44.3125 L 36.3125 -44.3125 L 41.265625 -23.046875 L 44 -10.734375 L 44.1875 -10.734375 L 46.53125 -23.046875 L 50.78125 -44.3125 L 59.921875 -44.3125 L 49.640625 0 L 38.65625 0 L 33.078125 -24 L 30.921875 -33.703125 L 30.71875 -33.703125 L 28.5 -24 L 22.921875 0 Z M 11.875 0 "/></g></g></g><g fill="#352359" fill-opacity="1"><g transform="translate(571.217912, 131.518302)"><g><path d="M 17.90625 0.765625 C 15.445312 0.765625 13.253906 0.363281 11.328125 -0.4375 C 9.398438 -1.25 7.769531 -2.414062 6.4375 -3.9375 C 5.101562 -5.457031 4.078125 -7.296875 3.359375 -9.453125 C 2.640625 -11.617188 2.28125 -14.035156 2.28125 -16.703125 C 2.28125 -19.367188 2.640625 -21.78125 3.359375 -23.9375 C 4.078125 -26.09375 5.101562 -27.921875 6.4375 -29.421875 C 7.769531 -30.921875 9.398438 -32.070312 11.328125 -32.875 C 13.253906 -33.6875 15.445312 -34.09375 17.90625 -34.09375 C 20.351562 -34.09375 22.539062 -33.6875 24.46875 -32.875 C 26.394531 -32.070312 28.023438 -30.921875 29.359375 -29.421875 C 30.691406 -27.921875 31.71875 -26.09375 32.4375 -23.9375 C 33.15625 -21.78125 33.515625 -19.367188 33.515625 -16.703125 C 33.515625 -14.035156 33.15625 -11.617188 32.4375 -9.453125 C 31.71875 -7.296875 30.691406 -5.457031 29.359375 -3.9375 C 28.023438 -2.414062 26.394531 -1.25 24.46875 -0.4375 C 22.539062 0.363281 20.351562 0.765625 17.90625 0.765625 Z M 17.90625 -6.671875 C 19.769531 -6.671875 21.207031 -7.238281 22.21875 -8.375 C 23.238281 -9.519531 23.75 -11.148438 23.75 -13.265625 L 23.75 -20.0625 C 23.75 -22.175781 23.238281 -23.800781 22.21875 -24.9375 C 21.207031 -26.082031 19.769531 -26.65625 17.90625 -26.65625 C 16.039062 -26.65625 14.597656 -26.082031 13.578125 -24.9375 C 12.566406 -23.800781 12.0625 -22.175781 12.0625 -20.0625 L 12.0625 -13.265625 C 12.0625 -11.148438 12.566406 -9.519531 13.578125 -8.375 C 14.597656 -7.238281 16.039062 -6.671875 17.90625 -6.671875 Z M 17.90625 -6.671875 "/></g></g></g><g fill="#352359" fill-opacity="1"><g transform="translate(607.015606, 131.518302)"><g><path d="M 4.375 0 L 4.375 -33.328125 L 13.78125 -33.328125 L 13.78125 -26.09375 L 14.09375 -26.09375 C 14.257812 -27.019531 14.550781 -27.914062 14.96875 -28.78125 C 15.394531 -29.65625 15.957031 -30.429688 16.65625 -31.109375 C 17.363281 -31.785156 18.203125 -32.320312 19.171875 -32.71875 C 20.140625 -33.125 21.28125 -33.328125 22.59375 -33.328125 L 24.25 -33.328125 L 24.25 -24.5625 L 21.90625 -24.5625 C 19.15625 -24.5625 17.113281 -24.203125 15.78125 -23.484375 C 14.445312 -22.765625 13.78125 -21.429688 13.78125 -19.484375 L 13.78125 0 Z M 4.375 0 "/></g></g></g><g fill="#352359" fill-opacity="1"><g transform="translate(632.657907, 131.518302)"><g><path d="M 4.375 -46.984375 L 13.78125 -46.984375 L 13.78125 -19.234375 L 14.15625 -19.234375 L 18.28125 -25.390625 L 24.953125 -33.328125 L 35.359375 -33.328125 L 24.25 -20.5625 L 36.625 0 L 25.453125 0 L 17.96875 -14.09375 L 13.78125 -9.390625 L 13.78125 0 L 4.375 0 Z M 4.375 -46.984375 "/></g></g></g><g fill="#352359" fill-opacity="1"><g transform="translate(669.280679, 131.518302)"><g><path d="M 15.6875 0.765625 C 12.46875 0.765625 9.753906 0.25 7.546875 -0.78125 C 5.347656 -1.820312 3.382812 -3.296875 1.65625 -5.203125 L 7.171875 -10.796875 C 8.359375 -9.484375 9.671875 -8.441406 11.109375 -7.671875 C 12.546875 -6.910156 14.175781 -6.53125 16 -6.53125 C 17.863281 -6.53125 19.15625 -6.816406 19.875 -7.390625 C 20.59375 -7.960938 20.953125 -8.738281 20.953125 -9.71875 C 20.953125 -11.28125 19.828125 -12.207031 17.578125 -12.5 L 13.96875 -12.953125 C 6.476562 -13.878906 2.734375 -17.304688 2.734375 -23.234375 C 2.734375 -24.835938 3.039062 -26.304688 3.65625 -27.640625 C 4.269531 -28.972656 5.132812 -30.113281 6.25 -31.0625 C 7.375 -32.019531 8.726562 -32.765625 10.3125 -33.296875 C 11.90625 -33.828125 13.695312 -34.09375 15.6875 -34.09375 C 17.414062 -34.09375 18.945312 -33.972656 20.28125 -33.734375 C 21.613281 -33.503906 22.796875 -33.164062 23.828125 -32.71875 C 24.867188 -32.28125 25.820312 -31.734375 26.6875 -31.078125 C 27.5625 -30.421875 28.421875 -29.691406 29.265625 -28.890625 L 23.875 -23.359375 C 22.8125 -24.421875 21.613281 -25.257812 20.28125 -25.875 C 18.945312 -26.488281 17.582031 -26.796875 16.1875 -26.796875 C 14.582031 -26.796875 13.441406 -26.539062 12.765625 -26.03125 C 12.085938 -25.519531 11.75 -24.84375 11.75 -24 C 11.75 -23.101562 11.988281 -22.410156 12.46875 -21.921875 C 12.957031 -21.441406 13.878906 -21.097656 15.234375 -20.890625 L 18.984375 -20.375 C 26.304688 -19.40625 29.96875 -16.0625 29.96875 -10.34375 C 29.96875 -8.738281 29.628906 -7.257812 28.953125 -5.90625 C 28.273438 -4.550781 27.3125 -3.375 26.0625 -2.375 C 24.8125 -1.382812 23.304688 -0.613281 21.546875 -0.0625 C 19.796875 0.488281 17.84375 0.765625 15.6875 0.765625 Z M 15.6875 0.765625 "/></g></g></g><g fill="#352359" fill-opacity="1"><g transform="translate(331.582219, 168.259289)"><g><path d="M 13.421875 -8 L 4.484375 -8 L 4.484375 0 L 2.359375 0 L 2.359375 -17.671875 L 4.484375 -17.671875 L 4.484375 -9.875 L 13.421875 -9.875 L 13.421875 -17.671875 L 15.546875 -17.671875 L 15.546875 0 L 13.421875 0 Z M 13.421875 -8 "/></g></g></g><g fill="#352359" fill-opacity="1"><g transform="translate(351.456312, 168.259289)"><g><path d="M 7.0625 0.296875 C 6.164062 0.296875 5.359375 0.140625 4.640625 -0.171875 C 3.929688 -0.492188 3.316406 -0.953125 2.796875 -1.546875 C 2.285156 -2.148438 1.890625 -2.867188 1.609375 -3.703125 C 1.328125 -4.546875 1.1875 -5.488281 1.1875 -6.53125 C 1.1875 -7.5625 1.328125 -8.5 1.609375 -9.34375 C 1.890625 -10.1875 2.285156 -10.90625 2.796875 -11.5 C 3.316406 -12.101562 3.929688 -12.566406 4.640625 -12.890625 C 5.359375 -13.210938 6.164062 -13.375 7.0625 -13.375 C 7.945312 -13.375 8.734375 -13.210938 9.421875 -12.890625 C 10.109375 -12.566406 10.695312 -12.125 11.1875 -11.5625 C 11.675781 -11 12.050781 -10.328125 12.3125 -9.546875 C 12.582031 -8.773438 12.71875 -7.921875 12.71875 -6.984375 L 12.71875 -6.03125 L 3.3125 -6.03125 L 3.3125 -5.421875 C 3.3125 -4.859375 3.398438 -4.335938 3.578125 -3.859375 C 3.753906 -3.378906 4.007812 -2.960938 4.34375 -2.609375 C 4.675781 -2.253906 5.082031 -1.972656 5.5625 -1.765625 C 6.039062 -1.566406 6.582031 -1.46875 7.1875 -1.46875 C 8.019531 -1.46875 8.742188 -1.660156 9.359375 -2.046875 C 9.972656 -2.441406 10.453125 -3 10.796875 -3.71875 L 12.234375 -2.6875 C 11.804688 -1.789062 11.144531 -1.066406 10.25 -0.515625 C 9.363281 0.0234375 8.300781 0.296875 7.0625 0.296875 Z M 7.0625 -11.671875 C 6.507812 -11.671875 6.003906 -11.570312 5.546875 -11.375 C 5.085938 -11.1875 4.691406 -10.914062 4.359375 -10.5625 C 4.035156 -10.207031 3.78125 -9.789062 3.59375 -9.3125 C 3.40625 -8.832031 3.3125 -8.300781 3.3125 -7.71875 L 3.3125 -7.546875 L 10.53125 -7.546875 L 10.53125 -7.828125 C 10.53125 -8.992188 10.210938 -9.925781 9.578125 -10.625 C 8.953125 -11.320312 8.113281 -11.671875 7.0625 -11.671875 Z M 7.0625 -11.671875 "/></g></g></g><g fill="#352359" fill-opacity="1"><g transform="translate(367.330471, 168.259289)"><g><path d="M 4.3125 0 C 3.59375 0 3.050781 -0.195312 2.6875 -0.59375 C 2.332031 -0.988281 2.15625 -1.492188 2.15625 -2.109375 L 2.15625 -18.75 L 4.171875 -18.75 L 4.171875 -1.765625 L 6.109375 -1.765625 L 6.109375 0 Z M 4.3125 0 "/></g></g></g><g fill="#352359" fill-opacity="1"><g transform="translate(376.192089, 168.259289)"><g><path d="M 2.15625 -13.0625 L 4.171875 -13.0625 L 4.171875 -10.9375 L 4.28125 -10.9375 C 4.613281 -11.769531 5.101562 -12.382812 5.75 -12.78125 C 6.40625 -13.175781 7.191406 -13.375 8.109375 -13.375 C 8.921875 -13.375 9.65625 -13.210938 10.3125 -12.890625 C 10.96875 -12.566406 11.523438 -12.109375 11.984375 -11.515625 C 12.453125 -10.929688 12.804688 -10.21875 13.046875 -9.375 C 13.296875 -8.53125 13.421875 -7.582031 13.421875 -6.53125 C 13.421875 -5.488281 13.296875 -4.546875 13.046875 -3.703125 C 12.804688 -2.859375 12.453125 -2.140625 11.984375 -1.546875 C 11.523438 -0.953125 10.96875 -0.492188 10.3125 -0.171875 C 9.65625 0.140625 8.921875 0.296875 8.109375 0.296875 C 6.335938 0.296875 5.0625 -0.507812 4.28125 -2.125 L 4.171875 -2.125 L 4.171875 5.0625 L 2.15625 5.0625 Z M 7.546875 -1.515625 C 8.691406 -1.515625 9.59375 -1.875 10.25 -2.59375 C 10.914062 -3.3125 11.25 -4.253906 11.25 -5.421875 L 11.25 -7.65625 C 11.25 -8.8125 10.914062 -9.75 10.25 -10.46875 C 9.59375 -11.1875 8.691406 -11.546875 7.546875 -11.546875 C 7.085938 -11.546875 6.648438 -11.484375 6.234375 -11.359375 C 5.828125 -11.234375 5.472656 -11.0625 5.171875 -10.84375 C 4.867188 -10.625 4.625 -10.359375 4.4375 -10.046875 C 4.257812 -9.734375 4.171875 -9.398438 4.171875 -9.046875 L 4.171875 -4.171875 C 4.171875 -3.753906 4.257812 -3.378906 4.4375 -3.046875 C 4.625 -2.722656 4.867188 -2.445312 5.171875 -2.21875 C 5.472656 -1.988281 5.828125 -1.8125 6.234375 -1.6875 C 6.648438 -1.570312 7.085938 -1.515625 7.546875 -1.515625 Z M 7.546875 -1.515625 "/></g></g></g><g fill="#352359" fill-opacity="1"><g transform="translate(392.851051, 168.259289)"><g><path d="M 3.171875 -16.140625 C 2.722656 -16.140625 2.398438 -16.242188 2.203125 -16.453125 C 2.015625 -16.660156 1.921875 -16.9375 1.921875 -17.28125 L 1.921875 -17.609375 C 1.921875 -17.941406 2.015625 -18.210938 2.203125 -18.421875 C 2.398438 -18.640625 2.722656 -18.75 3.171875 -18.75 C 3.609375 -18.75 3.921875 -18.640625 4.109375 -18.421875 C 4.304688 -18.210938 4.40625 -17.941406 4.40625 -17.609375 L 4.40625 -17.28125 C 4.40625 -16.9375 4.304688 -16.660156 4.109375 -16.453125 C 3.921875 -16.242188 3.609375 -16.140625 3.171875 -16.140625 Z M 2.15625 -13.0625 L 4.171875 -13.0625 L 4.171875 0 L 2.15625 0 Z M 2.15625 -13.0625 "/></g></g></g><g fill="#352359" fill-opacity="1"><g transform="translate(401.155727, 168.259289)"><g><path d="M 2.15625 0 L 2.15625 -13.0625 L 4.171875 -13.0625 L 4.171875 -10.9375 L 4.28125 -10.9375 C 4.601562 -11.6875 5.054688 -12.28125 5.640625 -12.71875 C 6.222656 -13.15625 7.003906 -13.375 7.984375 -13.375 C 9.328125 -13.375 10.390625 -12.9375 11.171875 -12.0625 C 11.960938 -11.195312 12.359375 -9.972656 12.359375 -8.390625 L 12.359375 0 L 10.328125 0 L 10.328125 -8.03125 C 10.328125 -10.375 9.34375 -11.546875 7.375 -11.546875 C 6.96875 -11.546875 6.570312 -11.492188 6.1875 -11.390625 C 5.8125 -11.296875 5.472656 -11.144531 5.171875 -10.9375 C 4.867188 -10.738281 4.625 -10.484375 4.4375 -10.171875 C 4.257812 -9.859375 4.171875 -9.488281 4.171875 -9.0625 L 4.171875 0 Z M 2.15625 0 "/></g></g></g><g fill="#352359" fill-opacity="1"><g transform="translate(417.510893, 168.259289)"><g><path d="M 13.171875 1.4375 C 13.171875 2.789062 12.640625 3.785156 11.578125 4.421875 C 10.523438 5.054688 8.945312 5.375 6.84375 5.375 C 4.800781 5.375 3.332031 5.09375 2.4375 4.53125 C 1.539062 3.976562 1.09375 3.1875 1.09375 2.15625 C 1.09375 1.445312 1.273438 0.894531 1.640625 0.5 C 2.015625 0.101562 2.523438 -0.1875 3.171875 -0.375 L 3.171875 -0.65625 C 2.390625 -1.03125 2 -1.640625 2 -2.484375 C 2 -3.140625 2.207031 -3.640625 2.625 -3.984375 C 3.050781 -4.335938 3.59375 -4.597656 4.25 -4.765625 L 4.25 -4.859375 C 3.476562 -5.234375 2.875 -5.765625 2.4375 -6.453125 C 2.007812 -7.148438 1.796875 -7.953125 1.796875 -8.859375 C 1.796875 -9.523438 1.910156 -10.132812 2.140625 -10.6875 C 2.378906 -11.25 2.710938 -11.726562 3.140625 -12.125 C 3.578125 -12.519531 4.09375 -12.828125 4.6875 -13.046875 C 5.289062 -13.265625 5.96875 -13.375 6.71875 -13.375 C 7.644531 -13.375 8.46875 -13.203125 9.1875 -12.859375 L 9.1875 -13.09375 C 9.1875 -13.601562 9.304688 -14.019531 9.546875 -14.34375 C 9.785156 -14.675781 10.175781 -14.84375 10.71875 -14.84375 L 12.671875 -14.84375 L 12.671875 -13.0625 L 10.1875 -13.0625 L 10.1875 -12.234375 C 10.65625 -11.828125 11.019531 -11.335938 11.28125 -10.765625 C 11.539062 -10.203125 11.671875 -9.566406 11.671875 -8.859375 C 11.671875 -8.203125 11.550781 -7.59375 11.3125 -7.03125 C 11.082031 -6.476562 10.75 -6.003906 10.3125 -5.609375 C 9.882812 -5.210938 9.367188 -4.90625 8.765625 -4.6875 C 8.160156 -4.46875 7.484375 -4.359375 6.734375 -4.359375 C 6.316406 -4.359375 5.894531 -4.398438 5.46875 -4.484375 C 5.03125 -4.367188 4.632812 -4.195312 4.28125 -3.96875 C 3.925781 -3.738281 3.75 -3.421875 3.75 -3.015625 C 3.75 -2.628906 3.929688 -2.367188 4.296875 -2.234375 C 4.671875 -2.097656 5.15625 -2.03125 5.75 -2.03125 L 8.53125 -2.03125 C 10.15625 -2.03125 11.332031 -1.71875 12.0625 -1.09375 C 12.800781 -0.476562 13.171875 0.363281 13.171875 1.4375 Z M 11.265625 1.59375 C 11.265625 1.070312 11.066406 0.65625 10.671875 0.34375 C 10.273438 0.03125 9.570312 -0.125 8.5625 -0.125 L 4.203125 -0.125 C 3.390625 0.25 2.984375 0.835938 2.984375 1.640625 C 2.984375 2.210938 3.195312 2.703125 3.625 3.109375 C 4.0625 3.515625 4.796875 3.71875 5.828125 3.71875 L 7.703125 3.71875 C 8.828125 3.71875 9.703125 3.539062 10.328125 3.1875 C 10.953125 2.832031 11.265625 2.300781 11.265625 1.59375 Z M 6.734375 -5.984375 C 7.597656 -5.984375 8.28125 -6.1875 8.78125 -6.59375 C 9.289062 -7.007812 9.546875 -7.648438 9.546875 -8.515625 L 9.546875 -9.21875 C 9.546875 -10.082031 9.289062 -10.71875 8.78125 -11.125 C 8.28125 -11.539062 7.597656 -11.75 6.734375 -11.75 C 5.878906 -11.75 5.195312 -11.539062 4.6875 -11.125 C 4.175781 -10.71875 3.921875 -10.082031 3.921875 -9.21875 L 3.921875 -8.515625 C 3.921875 -7.648438 4.175781 -7.007812 4.6875 -6.59375 C 5.195312 -6.1875 5.878906 -5.984375 6.734375 -5.984375 Z M 6.734375 -5.984375 "/></g></g></g><g fill="#352359" fill-opacity="1"><g transform="translate(432.853414, 168.259289)"><g/></g></g><g fill="#352359" fill-opacity="1"><g transform="translate(440.803653, 168.259289)"><g><path d="M 1.515625 0 L 1.515625 -1.765625 L 4 -1.765625 L 4 -15.90625 L 1.515625 -15.90625 L 1.515625 -17.671875 L 8.609375 -17.671875 L 8.609375 -15.90625 L 6.125 -15.90625 L 6.125 -1.765625 L 8.609375 -1.765625 L 8.609375 0 Z M 1.515625 0 "/></g></g></g><g fill="#352359" fill-opacity="1"><g transform="translate(452.905724, 168.259289)"><g><path d="M 2.15625 0 L 2.15625 -13.0625 L 4.171875 -13.0625 L 4.171875 -10.9375 L 4.28125 -10.9375 C 4.601562 -11.6875 5.054688 -12.28125 5.640625 -12.71875 C 6.222656 -13.15625 7.003906 -13.375 7.984375 -13.375 C 9.328125 -13.375 10.390625 -12.9375 11.171875 -12.0625 C 11.960938 -11.195312 12.359375 -9.972656 12.359375 -8.390625 L 12.359375 0 L 10.328125 0 L 10.328125 -8.03125 C 10.328125 -10.375 9.34375 -11.546875 7.375 -11.546875 C 6.96875 -11.546875 6.570312 -11.492188 6.1875 -11.390625 C 5.8125 -11.296875 5.472656 -11.144531 5.171875 -10.9375 C 4.867188 -10.738281 4.625 -10.484375 4.4375 -10.171875 C 4.257812 -9.859375 4.171875 -9.488281 4.171875 -9.0625 L 4.171875 0 Z M 2.15625 0 "/></g></g></g><g fill="#352359" fill-opacity="1"><g transform="translate(469.26089, 168.259289)"><g><path d="M 10.515625 -2.125 L 10.40625 -2.125 C 9.613281 -0.507812 8.335938 0.296875 6.578125 0.296875 C 5.773438 0.296875 5.039062 0.140625 4.375 -0.171875 C 3.71875 -0.492188 3.15625 -0.953125 2.6875 -1.546875 C 2.226562 -2.140625 1.875 -2.859375 1.625 -3.703125 C 1.382812 -4.546875 1.265625 -5.488281 1.265625 -6.53125 C 1.265625 -7.582031 1.382812 -8.53125 1.625 -9.375 C 1.875 -10.21875 2.226562 -10.929688 2.6875 -11.515625 C 3.15625 -12.109375 3.71875 -12.566406 4.375 -12.890625 C 5.039062 -13.210938 5.773438 -13.375 6.578125 -13.375 C 7.492188 -13.375 8.273438 -13.175781 8.921875 -12.78125 C 9.578125 -12.382812 10.070312 -11.769531 10.40625 -10.9375 L 10.515625 -10.9375 L 10.515625 -18.75 L 12.53125 -18.75 L 12.53125 0 L 10.515625 0 Z M 7.140625 -1.515625 C 7.597656 -1.515625 8.03125 -1.570312 8.4375 -1.6875 C 8.851562 -1.8125 9.210938 -1.988281 9.515625 -2.21875 C 9.828125 -2.445312 10.070312 -2.722656 10.25 -3.046875 C 10.425781 -3.378906 10.515625 -3.753906 10.515625 -4.171875 L 10.515625 -9.046875 C 10.515625 -9.398438 10.425781 -9.734375 10.25 -10.046875 C 10.070312 -10.359375 9.828125 -10.625 9.515625 -10.84375 C 9.210938 -11.0625 8.851562 -11.234375 8.4375 -11.359375 C 8.03125 -11.484375 7.597656 -11.546875 7.140625 -11.546875 C 5.992188 -11.546875 5.085938 -11.1875 4.421875 -10.46875 C 3.765625 -9.75 3.4375 -8.8125 3.4375 -7.65625 L 3.4375 -5.421875 C 3.4375 -4.253906 3.765625 -3.3125 4.421875 -2.59375 C 5.085938 -1.875 5.992188 -1.515625 7.140625 -1.515625 Z M 7.140625 -1.515625 "/></g></g></g><g fill="#352359" fill-opacity="1"><g transform="translate(485.919852, 168.259289)"><g><path d="M 7.09375 0.296875 C 6.21875 0.296875 5.414062 0.140625 4.6875 -0.171875 C 3.957031 -0.492188 3.332031 -0.953125 2.8125 -1.546875 C 2.300781 -2.148438 1.898438 -2.867188 1.609375 -3.703125 C 1.328125 -4.546875 1.1875 -5.488281 1.1875 -6.53125 C 1.1875 -7.5625 1.328125 -8.5 1.609375 -9.34375 C 1.898438 -10.1875 2.300781 -10.90625 2.8125 -11.5 C 3.332031 -12.101562 3.957031 -12.566406 4.6875 -12.890625 C 5.414062 -13.210938 6.21875 -13.375 7.09375 -13.375 C 7.96875 -13.375 8.765625 -13.210938 9.484375 -12.890625 C 10.203125 -12.566406 10.820312 -12.101562 11.34375 -11.5 C 11.863281 -10.90625 12.269531 -10.1875 12.5625 -9.34375 C 12.851562 -8.5 13 -7.5625 13 -6.53125 C 13 -5.488281 12.851562 -4.546875 12.5625 -3.703125 C 12.269531 -2.867188 11.863281 -2.148438 11.34375 -1.546875 C 10.820312 -0.953125 10.203125 -0.492188 9.484375 -0.171875 C 8.765625 0.140625 7.96875 0.296875 7.09375 0.296875 Z M 7.09375 -1.5 C 8.1875 -1.5 9.078125 -1.832031 9.765625 -2.5 C 10.460938 -3.175781 10.8125 -4.207031 10.8125 -5.59375 L 10.8125 -7.46875 C 10.8125 -8.851562 10.460938 -9.882812 9.765625 -10.5625 C 9.078125 -11.238281 8.1875 -11.578125 7.09375 -11.578125 C 6 -11.578125 5.101562 -11.238281 4.40625 -10.5625 C 3.71875 -9.882812 3.375 -8.851562 3.375 -7.46875 L 3.375 -5.59375 C 3.375 -4.207031 3.71875 -3.175781 4.40625 -2.5 C 5.101562 -1.832031 6 -1.5 7.09375 -1.5 Z M 7.09375 -1.5 "/></g></g></g><g fill="#352359" fill-opacity="1"><g transform="translate(502.072491, 168.259289)"><g><path d="M 2.15625 0 L 2.15625 -13.0625 L 4.171875 -13.0625 L 4.171875 -10.9375 L 4.28125 -10.9375 C 4.601562 -11.6875 5.054688 -12.28125 5.640625 -12.71875 C 6.222656 -13.15625 7.003906 -13.375 7.984375 -13.375 C 9.328125 -13.375 10.390625 -12.9375 11.171875 -12.0625 C 11.960938 -11.195312 12.359375 -9.972656 12.359375 -8.390625 L 12.359375 0 L 10.328125 0 L 10.328125 -8.03125 C 10.328125 -10.375 9.34375 -11.546875 7.375 -11.546875 C 6.96875 -11.546875 6.570312 -11.492188 6.1875 -11.390625 C 5.8125 -11.296875 5.472656 -11.144531 5.171875 -10.9375 C 4.867188 -10.738281 4.625 -10.484375 4.4375 -10.171875 C 4.257812 -9.859375 4.171875 -9.488281 4.171875 -9.0625 L 4.171875 0 Z M 2.15625 0 "/></g></g></g><g fill="#352359" fill-opacity="1"><g transform="translate(518.427657, 168.259289)"><g><path d="M 7.0625 0.296875 C 6.164062 0.296875 5.359375 0.140625 4.640625 -0.171875 C 3.929688 -0.492188 3.316406 -0.953125 2.796875 -1.546875 C 2.285156 -2.148438 1.890625 -2.867188 1.609375 -3.703125 C 1.328125 -4.546875 1.1875 -5.488281 1.1875 -6.53125 C 1.1875 -7.5625 1.328125 -8.5 1.609375 -9.34375 C 1.890625 -10.1875 2.285156 -10.90625 2.796875 -11.5 C 3.316406 -12.101562 3.929688 -12.566406 4.640625 -12.890625 C 5.359375 -13.210938 6.164062 -13.375 7.0625 -13.375 C 7.945312 -13.375 8.734375 -13.210938 9.421875 -12.890625 C 10.109375 -12.566406 10.695312 -12.125 11.1875 -11.5625 C 11.675781 -11 12.050781 -10.328125 12.3125 -9.546875 C 12.582031 -8.773438 12.71875 -7.921875 12.71875 -6.984375 L 12.71875 -6.03125 L 3.3125 -6.03125 L 3.3125 -5.421875 C 3.3125 -4.859375 3.398438 -4.335938 3.578125 -3.859375 C 3.753906 -3.378906 4.007812 -2.960938 4.34375 -2.609375 C 4.675781 -2.253906 5.082031 -1.972656 5.5625 -1.765625 C 6.039062 -1.566406 6.582031 -1.46875 7.1875 -1.46875 C 8.019531 -1.46875 8.742188 -1.660156 9.359375 -2.046875 C 9.972656 -2.441406 10.453125 -3 10.796875 -3.71875 L 12.234375 -2.6875 C 11.804688 -1.789062 11.144531 -1.066406 10.25 -0.515625 C 9.363281 0.0234375 8.300781 0.296875 7.0625 0.296875 Z M 7.0625 -11.671875 C 6.507812 -11.671875 6.003906 -11.570312 5.546875 -11.375 C 5.085938 -11.1875 4.691406 -10.914062 4.359375 -10.5625 C 4.035156 -10.207031 3.78125 -9.789062 3.59375 -9.3125 C 3.40625 -8.832031 3.3125 -8.300781 3.3125 -7.71875 L 3.3125 -7.546875 L 10.53125 -7.546875 L 10.53125 -7.828125 C 10.53125 -8.992188 10.210938 -9.925781 9.578125 -10.625 C 8.953125 -11.320312 8.113281 -11.671875 7.0625 -11.671875 Z M 7.0625 -11.671875 "/></g></g></g><g fill="#352359" fill-opacity="1"><g transform="translate(534.301818, 168.259289)"><g><path d="M 6.078125 0.296875 C 4.859375 0.296875 3.835938 0.0664062 3.015625 -0.390625 C 2.203125 -0.859375 1.5 -1.476562 0.90625 -2.25 L 2.359375 -3.421875 C 2.859375 -2.773438 3.421875 -2.28125 4.046875 -1.9375 C 4.671875 -1.59375 5.398438 -1.421875 6.234375 -1.421875 C 7.085938 -1.421875 7.753906 -1.601562 8.234375 -1.96875 C 8.722656 -2.34375 8.96875 -2.867188 8.96875 -3.546875 C 8.96875 -4.054688 8.800781 -4.488281 8.46875 -4.84375 C 8.144531 -5.207031 7.550781 -5.457031 6.6875 -5.59375 L 5.640625 -5.75 C 5.035156 -5.832031 4.476562 -5.960938 3.96875 -6.140625 C 3.46875 -6.316406 3.023438 -6.550781 2.640625 -6.84375 C 2.265625 -7.144531 1.96875 -7.515625 1.75 -7.953125 C 1.539062 -8.390625 1.4375 -8.910156 1.4375 -9.515625 C 1.4375 -10.160156 1.554688 -10.722656 1.796875 -11.203125 C 2.035156 -11.679688 2.359375 -12.082031 2.765625 -12.40625 C 3.179688 -12.726562 3.675781 -12.96875 4.25 -13.125 C 4.820312 -13.289062 5.441406 -13.375 6.109375 -13.375 C 7.171875 -13.375 8.0625 -13.1875 8.78125 -12.8125 C 9.5 -12.445312 10.125 -11.929688 10.65625 -11.265625 L 9.328125 -10.0625 C 9.035156 -10.457031 8.609375 -10.820312 8.046875 -11.15625 C 7.492188 -11.488281 6.796875 -11.65625 5.953125 -11.65625 C 5.109375 -11.65625 4.46875 -11.472656 4.03125 -11.109375 C 3.601562 -10.742188 3.390625 -10.25 3.390625 -9.625 C 3.390625 -8.976562 3.601562 -8.507812 4.03125 -8.21875 C 4.46875 -7.9375 5.09375 -7.726562 5.90625 -7.59375 L 6.921875 -7.453125 C 8.367188 -7.234375 9.394531 -6.8125 10 -6.1875 C 10.613281 -5.570312 10.921875 -4.769531 10.921875 -3.78125 C 10.921875 -2.507812 10.488281 -1.507812 9.625 -0.78125 C 8.757812 -0.0625 7.578125 0.296875 6.078125 0.296875 Z M 6.078125 0.296875 "/></g></g></g><g fill="#352359" fill-opacity="1"><g transform="translate(548.606377, 168.259289)"><g><path d="M 3.171875 -16.140625 C 2.722656 -16.140625 2.398438 -16.242188 2.203125 -16.453125 C 2.015625 -16.660156 1.921875 -16.9375 1.921875 -17.28125 L 1.921875 -17.609375 C 1.921875 -17.941406 2.015625 -18.210938 2.203125 -18.421875 C 2.398438 -18.640625 2.722656 -18.75 3.171875 -18.75 C 3.609375 -18.75 3.921875 -18.640625 4.109375 -18.421875 C 4.304688 -18.210938 4.40625 -17.941406 4.40625 -17.609375 L 4.40625 -17.28125 C 4.40625 -16.9375 4.304688 -16.660156 4.109375 -16.453125 C 3.921875 -16.242188 3.609375 -16.140625 3.171875 -16.140625 Z M 2.15625 -13.0625 L 4.171875 -13.0625 L 4.171875 0 L 2.15625 0 Z M 2.15625 -13.0625 "/></g></g></g><g fill="#352359" fill-opacity="1"><g transform="translate(556.91104, 168.259289)"><g><path d="M 11.65625 0 C 10.894531 0 10.347656 -0.203125 10.015625 -0.609375 C 9.679688 -1.015625 9.472656 -1.519531 9.390625 -2.125 L 9.265625 -2.125 C 8.984375 -1.3125 8.507812 -0.703125 7.84375 -0.296875 C 7.1875 0.0976562 6.40625 0.296875 5.5 0.296875 C 4.113281 0.296875 3.035156 -0.0546875 2.265625 -0.765625 C 1.492188 -1.472656 1.109375 -2.429688 1.109375 -3.640625 C 1.109375 -4.878906 1.5625 -5.828125 2.46875 -6.484375 C 3.375 -7.140625 4.78125 -7.46875 6.6875 -7.46875 L 9.265625 -7.46875 L 9.265625 -8.765625 C 9.265625 -9.691406 9.007812 -10.398438 8.5 -10.890625 C 8 -11.378906 7.226562 -11.625 6.1875 -11.625 C 5.382812 -11.625 4.71875 -11.445312 4.1875 -11.09375 C 3.65625 -10.738281 3.210938 -10.265625 2.859375 -9.671875 L 1.640625 -10.8125 C 1.992188 -11.519531 2.5625 -12.125 3.34375 -12.625 C 4.125 -13.125 5.101562 -13.375 6.28125 -13.375 C 7.863281 -13.375 9.09375 -12.984375 9.96875 -12.203125 C 10.851562 -11.429688 11.296875 -10.351562 11.296875 -8.96875 L 11.296875 -1.765625 L 12.796875 -1.765625 L 12.796875 0 Z M 5.828125 -1.421875 C 6.328125 -1.421875 6.789062 -1.476562 7.21875 -1.59375 C 7.644531 -1.707031 8.007812 -1.875 8.3125 -2.09375 C 8.613281 -2.320312 8.847656 -2.578125 9.015625 -2.859375 C 9.179688 -3.148438 9.265625 -3.460938 9.265625 -3.796875 L 9.265625 -5.953125 L 6.578125 -5.953125 C 5.421875 -5.953125 4.570312 -5.78125 4.03125 -5.4375 C 3.5 -5.101562 3.234375 -4.613281 3.234375 -3.96875 L 3.234375 -3.4375 C 3.234375 -2.800781 3.46875 -2.304688 3.9375 -1.953125 C 4.40625 -1.597656 5.035156 -1.421875 5.828125 -1.421875 Z M 5.828125 -1.421875 "/></g></g></g><g fill="#352359" fill-opacity="1"><g transform="translate(572.405465, 168.259289)"><g><path d="M 2.15625 0 L 2.15625 -13.0625 L 4.171875 -13.0625 L 4.171875 -10.9375 L 4.28125 -10.9375 C 4.601562 -11.6875 5.054688 -12.28125 5.640625 -12.71875 C 6.222656 -13.15625 7.003906 -13.375 7.984375 -13.375 C 9.328125 -13.375 10.390625 -12.9375 11.171875 -12.0625 C 11.960938 -11.195312 12.359375 -9.972656 12.359375 -8.390625 L 12.359375 0 L 10.328125 0 L 10.328125 -8.03125 C 10.328125 -10.375 9.34375 -11.546875 7.375 -11.546875 C 6.96875 -11.546875 6.570312 -11.492188 6.1875 -11.390625 C 5.8125 -11.296875 5.472656 -11.144531 5.171875 -10.9375 C 4.867188 -10.738281 4.625 -10.484375 4.4375 -10.171875 C 4.257812 -9.859375 4.171875 -9.488281 4.171875 -9.0625 L 4.171875 0 Z M 2.15625 0 "/></g></g></g><g fill="#352359" fill-opacity="1"><g transform="translate(588.760631, 168.259289)"><g/></g></g><g fill="#352359" fill-opacity="1"><g transform="translate(596.710876, 168.259289)"><g><path d="M 7.3125 0.296875 C 5.882812 0.296875 4.660156 0.0234375 3.640625 -0.515625 C 2.628906 -1.066406 1.769531 -1.820312 1.0625 -2.78125 L 2.640625 -4.109375 C 3.265625 -3.273438 3.953125 -2.644531 4.703125 -2.21875 C 5.460938 -1.789062 6.359375 -1.578125 7.390625 -1.578125 C 8.660156 -1.578125 9.628906 -1.878906 10.296875 -2.484375 C 10.960938 -3.085938 11.296875 -3.894531 11.296875 -4.90625 C 11.296875 -5.757812 11.039062 -6.410156 10.53125 -6.859375 C 10.03125 -7.316406 9.195312 -7.679688 8.03125 -7.953125 L 6.578125 -8.28125 C 4.960938 -8.65625 3.726562 -9.21875 2.875 -9.96875 C 2.019531 -10.71875 1.59375 -11.773438 1.59375 -13.140625 C 1.59375 -13.921875 1.734375 -14.613281 2.015625 -15.21875 C 2.304688 -15.832031 2.707031 -16.335938 3.21875 -16.734375 C 3.738281 -17.140625 4.359375 -17.445312 5.078125 -17.65625 C 5.796875 -17.875 6.585938 -17.984375 7.453125 -17.984375 C 8.785156 -17.984375 9.925781 -17.738281 10.875 -17.25 C 11.832031 -16.757812 12.640625 -16.039062 13.296875 -15.09375 L 11.703125 -13.9375 C 11.210938 -14.601562 10.617188 -15.128906 9.921875 -15.515625 C 9.234375 -15.910156 8.375 -16.109375 7.34375 -16.109375 C 6.207031 -16.109375 5.316406 -15.867188 4.671875 -15.390625 C 4.023438 -14.910156 3.703125 -14.1875 3.703125 -13.21875 C 3.703125 -12.375 3.972656 -11.734375 4.515625 -11.296875 C 5.066406 -10.867188 5.898438 -10.53125 7.015625 -10.28125 L 8.453125 -9.953125 C 10.191406 -9.566406 11.453125 -8.972656 12.234375 -8.171875 C 13.015625 -7.378906 13.40625 -6.328125 13.40625 -5.015625 C 13.40625 -4.203125 13.265625 -3.46875 12.984375 -2.8125 C 12.703125 -2.15625 12.300781 -1.597656 11.78125 -1.140625 C 11.257812 -0.679688 10.617188 -0.328125 9.859375 -0.078125 C 9.109375 0.171875 8.257812 0.296875 7.3125 0.296875 Z M 7.3125 0.296875 "/></g></g></g><g fill="#352359" fill-opacity="1"><g transform="translate(613.39513, 168.259289)"><g><path d="M 16.140625 -14.890625 L 16 -14.890625 L 14.515625 -11.921875 L 10.28125 -4.234375 L 6.046875 -11.921875 L 4.5625 -14.890625 L 4.4375 -14.890625 L 4.4375 0 L 2.359375 0 L 2.359375 -17.671875 L 5.1875 -17.671875 L 10.265625 -8.15625 L 10.390625 -8.15625 L 15.46875 -17.671875 L 18.21875 -17.671875 L 18.21875 0 L 16.140625 0 Z M 16.140625 -14.890625 "/></g></g></g><g fill="#352359" fill-opacity="1"><g transform="translate(635.927387, 168.259289)"><g><path d="M 2.359375 0 L 2.359375 -17.671875 L 13.140625 -17.671875 L 13.140625 -15.8125 L 4.484375 -15.8125 L 4.484375 -9.875 L 12.640625 -9.875 L 12.640625 -8 L 4.484375 -8 L 4.484375 -1.875 L 13.140625 -1.875 L 13.140625 0 Z M 2.359375 0 "/></g></g></g></svg>